#!OML:ASF E:\emotionWalksFemale\Project 1\Capture day 1\Session 1\Female1.ASF
:FULLY-SPECIFIED
:DEGREES
589
root 9.90912 15.4438 2.13425 -0.424703 6.13101 4.09167
lowerback 7.43901 -0.806268 -4.41429
upperback -3.75704 -1.55564 0.0689092
thorax -8.03597 -0.520949 2.77473
lowerneck -7.85783 -2.72775 -5.48118
upperneck 8.35595 -3.40182 3.91072
head 3.93932 -1.65486 1.88828
rclavicle -9.46712e-015 -1.51076e-014
rhumerus -46.2733 -1.3519 -79.6846
rradius 29.776
rwrist 18.3003
rhand 0.429221 -52.6531
rfingers 7.12502
rthumb 26.0014 -80.8941
lclavicle -9.46712e-015 -1.51076e-014
lhumerus -28.7539 -1.639 89.3171
lradius 45.0975
lwrist -3.90478
lhand -8.55569 -34.8723
lfingers 7.12502
lthumb 17.3741 -5.62884
rfemur -26.2845 19.1514 12.6069
rtibia 23.355
rfoot -23.9706 -39.5634
rtoes 7.58581
lfemur 12.6511 -17.2394 -35.5324
ltibia 11.4398
lfoot -17.9056 16.5622
ltoes -11.9332
590
root 9.89185 15.4302 2.27575 -0.0823804 6.4797 4.38943
lowerback 7.23358 -0.87487 -4.72445
upperback -3.87357 -1.67948 -0.0144976
thorax -8.02838 -0.565685 2.87395
lowerneck -7.95176 -2.80969 -5.65294
upperneck 8.56852 -3.49539 3.94987
head 4.02787 -1.70419 1.92056
rclavicle -1.53561e-014 -6.36111e-015
rhumerus -46.518 -1.14276 -79.759
rradius 29.7521
rwrist 18.422
rhand 0.65208 -52.7997
rfingers 7.12502
rthumb 26.2148 -81.0092
lclavicle -1.53561e-014 -6.36111e-015
lhumerus -29.0781 -1.93747 89.625
lradius 45.9465
lwrist -3.57418
lhand -8.63495 -34.7694
lfingers 7.12502
lthumb 17.2978 -5.51924
rfemur -26.9085 22.0557 10.9503
rtibia 22.379
rfoot -26.6099 -41.6331
rtoes 10.5198
lfemur 13.2864 -16.8512 -35.6515
ltibia 10.6627
lfoot -16.9877 16.2662
ltoes -16.5832
591
root 9.88138 15.4165 2.43394 -0.0334184 6.53836 4.52623
lowerback 7.13849 -0.825252 -4.69393
upperback -4.00545 -1.62276 -0.206415
thorax -8.12638 -0.540711 2.64523
lowerneck -7.84498 -2.88053 -5.50555
upperneck 8.91705 -3.61819 3.90741
head 4.11893 -1.76444 1.87622
rclavicle 6.78353e-015 -8.34896e-015
rhumerus -46.9966 -1.24619 -79.858
rradius 29.7678
rwrist 18.7927
rhand 1.27436 -52.8483
rfingers 7.12502
rthumb 26.8104 -80.9679
lclavicle 6.78353e-015 -8.34896e-015
lhumerus -29.5378 -2.55466 89.8494
lradius 46.5745
lwrist -2.96386
lhand -8.35725 -34.4683
lfingers 7.12502
lthumb 17.5651 -5.24181
rfemur -27.3157 24.9511 9.60518
rtibia 21.6857
rfoot -29.1923 -43.141
rtoes 13.3215
lfemur 14.2525 -16.4452 -35.7797
ltibia 9.96422
lfoot -16.5713 15.9674
ltoes -17.8102
592
root 9.86119 15.4052 2.57636 0.256167 6.92287 4.64291
lowerback 7.07707 -0.866797 -4.80555
upperback -4.18277 -1.6992 -0.294648
thorax -8.27709 -0.567572 2.62556
lowerneck -7.97416 -2.93895 -5.45532
upperneck 9.31255 -3.69467 3.80624
head 4.26205 -1.80559 1.82919
rclavicle 2.43263e-014 -2.18663e-014
rhumerus -47.2389 -1.42634 -79.8011
rradius 29.669
rwrist 19.1302
rhand 1.52822 -52.5327
rfingers 7.12502
rthumb 27.0533 -80.6148
lclavicle 2.43263e-014 -2.18663e-014
lhumerus -29.9682 -2.95776 90.1366
lradius 47.1677
lwrist -2.56854
lhand -8.28589 -34.6765
lfingers 7.12502
lthumb 17.6337 -5.45611
rfemur -28.0207 27.8517 8.01016
rtibia 21.0586
rfoot -32.4197 -44.6487
rtoes 16.8561
lfemur 14.6555 -16.447 -35.7223
ltibia 9.71
lfoot -16.3389 15.4623
ltoes -17.2741
593
root 9.83841 15.3892 2.7244 0.396474 7.14313 4.65055
lowerback 6.94089 -0.882923 -4.9285
upperback -4.20868 -1.72651 -0.294708
thorax -8.22083 -0.575177 2.69493
lowerneck -8.09591 -2.98116 -5.44201
upperneck 9.48953 -3.74377 3.74173
head 4.33734 -1.83204 1.80181
rclavicle -2.93207e-015 1.78906e-014
rhumerus -47.3337 -1.4524 -79.8038
rradius 29.5756
rwrist 19.2905
rhand 1.71991 -52.5143
rfingers 7.12502
rthumb 27.2367 -80.5678
lclavicle -2.93207e-015 1.78906e-014
lhumerus -30.1707 -3.12555 90.3885
lradius 47.5703
lwrist -2.39764
lhand -8.56395 -35.1831
lfingers 7.12502
lthumb 17.3661 -5.93888
rfemur -28.6057 30.8079 6.65957
rtibia 20.5678
rfoot -35.4419 -46.157
rtoes 19.4736
lfemur 15.0948 -16.2573 -35.556
ltibia 9.67171
lfoot -16.0979 15.1576
ltoes -16.9979
594
root 9.81256 15.3755 2.87793 0.333867 7.32762 4.42536
lowerback 6.81193 -0.919605 -4.85601
upperback -4.12388 -1.75407 -0.250074
thorax -8.05118 -0.597538 2.70058
lowerneck -8.20657 -3.02722 -5.33743
upperneck 9.61759 -3.80803 3.66879
head 4.39456 -1.86315 1.75626
rclavicle -1.95554e-014 7.15625e-015
rhumerus -47.2553 -1.41818 -79.8966
rradius 29.4245
rwrist 19.3646
rhand 2.08068 -52.7529
rfingers 7.12502
rthumb 27.5817 -80.7517
lclavicle -1.95554e-014 7.15625e-015
lhumerus -30.3554 -3.31178 90.5436
lradius 48.0425
lwrist -2.00675
lhand -8.61706 -35.3478
lfingers 7.12502
lthumb 17.315 -6.09912
rfemur -28.7698 33.4416 5.90646
rtibia 19.9951
rfoot -38.5433 -47.1417
rtoes 22.2419
lfemur 15.5314 -15.9969 -35.1657
ltibia 10.0935
lfoot -16.0716 15.0988
ltoes -17.9472
595
root 9.79748 15.3682 3.02066 0.536999 7.74926 4.60515
lowerback 6.74245 -1.01079 -4.9317
upperback -4.1931 -1.88778 -0.325248
thorax -8.07533 -0.659217 2.68005
lowerneck -8.47737 -3.10205 -5.47727
upperneck 10.0591 -3.8891 3.68918
head 4.58216 -1.90539 1.77449
rclavicle 1.44119e-015 -6.55989e-015
rhumerus -47.2033 -1.35304 -79.8297
rradius 29.2605
rwrist 19.3409
rhand 2.12245 -52.6089
rfingers 7.12502
rthumb 27.6217 -80.6014
lclavicle 1.44119e-015 -6.55989e-015
lhumerus -30.6589 -3.54469 90.7714
lradius 48.4556
lwrist -1.58129
lhand -8.50982 -35.3867
lfingers 7.12502
lthumb 17.4182 -6.14716
rfemur -28.859 34.36 5.17811
rtibia 19.6507
rfoot -40.0116 -47.2052
rtoes 23.6844
lfemur 15.7919 -15.861 -35.1273
ltibia 10.328
lfoot -15.9674 14.5142
ltoes -17.8188
